<?xml version="1.0" standalone="no"?>
<!DOCTYPE svg PUBLIC "-//W3C//DTD SVG 20010904//EN"
 "http://www.w3.org/TR/2001/REC-SVG-20010904/DTD/svg10.dtd">
<svg version="1.0" xmlns="http://www.w3.org/2000/svg"
 width="2945.000000pt" height="1212.000000pt" viewBox="0 0 2945.000000 1212.000000"
 preserveAspectRatio="xMidYMid meet">

<g transform="translate(0.000000,1212.000000) scale(0.100000,-0.100000)"
fill="#000000" stroke="none">
<path d="M8410 11293 c-535 -51 -948 -194 -1373 -476 -718 -476 -1128 -1084
-1242 -1844 -84 -562 8 -1127 249 -1537 202 -343 535 -638 903 -799 295 -129
609 -187 1019 -187 308 0 488 20 741 81 383 93 760 279 1073 529 133 107 362
335 467 466 337 423 535 925 604 1532 15 140 7 478 -16 602 -70 386 -266 736
-581 1040 -161 155 -315 265 -500 358 -243 121 -547 203 -864 232 -106 9 -397
11 -480 3z m276 -1163 c383 -60 725 -325 858 -663 68 -172 89 -411 52 -599
-69 -358 -334 -777 -636 -1004 -96 -73 -267 -161 -383 -199 -157 -50 -236 -60
-462 -59 -182 0 -220 3 -287 22 -313 86 -559 289 -698 576 -84 174 -117 348
-106 571 16 344 150 660 386 908 134 142 270 240 440 321 263 124 559 169 836
126z"/>
<path d="M1760 11130 c-11 -11 -22 -30 -25 -42 -20 -87 -625 -4397 -625 -4457
0 -26 4 -31 33 -36 17 -3 303 -5 634 -3 438 2 605 6 614 15 9 9 125 829 235
1662 19 144 33 220 43 232 15 18 53 19 869 20 660 1 856 -2 867 -11 19 -16 19
-51 0 -153 -21 -110 -235 -1677 -235 -1716 0 -24 6 -34 23 -40 12 -4 279 -7
593 -7 623 1 599 -1 609 60 15 92 178 1292 184 1356 5 47 2 123 -7 205 -20
183 -20 547 1 706 35 263 93 484 188 716 l60 148 39 275 c116 809 148 1056
139 1073 -9 16 -49 17 -618 17 -535 0 -610 -2 -621 -15 -8 -10 -47 -307 -105
-808 -51 -436 -95 -799 -99 -808 -17 -38 -34 -39 -891 -39 -939 0 -873 -6
-862 74 4 23 47 336 96 696 50 360 97 699 104 752 11 74 11 103 3 120 l-12 23
-607 3 c-593 2 -607 2 -627 -18z"/>
<path d="M10141 11138 c0 -7 36 -42 81 -78 110 -89 308 -288 400 -401 103
-127 195 -267 262 -398 41 -79 62 -110 78 -115 13 -3 130 -6 260 -6 281 0 274
2 263 -94 -6 -58 -260 -1916 -401 -2944 -52 -374 -64 -486 -55 -495 9 -9 151
-12 559 -14 301 -1 559 1 575 4 15 2 31 13 37 22 5 10 27 150 49 312 22 162
108 785 190 1384 82 600 171 1245 196 1435 29 212 52 354 61 368 l14 22 463 0
c373 0 467 3 482 14 15 11 26 68 65 362 26 192 55 406 66 476 15 105 16 129 5
142 -12 15 -179 16 -1832 16 -1449 0 -1819 -3 -1818 -12z"/>
<path d="M14878 11130 c-312 -53 -473 -178 -533 -415 -8 -33 -69 -458 -135
-945 -138 -1010 -318 -2322 -385 -2799 -25 -179 -42 -333 -39 -343 3 -11 15
-23 27 -27 12 -4 436 -7 942 -6 1002 1 1019 2 1285 61 366 82 744 274 1100
561 154 123 370 344 474 484 290 387 445 816 487 1346 37 466 -67 875 -316
1248 -292 437 -759 736 -1285 824 -142 23 -370 31 -930 30 -514 -1 -598 -3
-692 -19z m942 -994 c185 -5 279 -23 428 -79 240 -90 432 -266 528 -484 117
-263 118 -694 3 -1020 -126 -355 -365 -635 -674 -788 -243 -120 -460 -164
-810 -165 -174 0 -185 3 -185 53 0 16 54 421 121 900 66 480 140 1021 165
1202 24 182 48 340 54 353 14 31 41 39 129 35 42 -1 150 -5 241 -7z"/>
<path d="M19195 11135 c-192 -30 -319 -83 -413 -170 -61 -56 -119 -152 -141
-230 -6 -22 -88 -599 -181 -1281 -176 -1287 -376 -2737 -386 -2789 -3 -18 1
-38 10 -50 14 -20 28 -20 1253 -23 853 -2 1249 0 1275 8 35 10 41 18 186 298
243 465 362 695 362 699 0 1 -389 3 -864 3 -773 0 -866 2 -880 16 -21 20 -21
14 18 290 19 132 40 284 47 338 8 71 17 104 30 117 18 18 48 19 652 19 691 0
669 -2 681 58 3 15 22 149 41 297 20 149 47 343 60 433 30 192 29 186 9 206
-14 14 -86 16 -649 16 l-635 0 -14 23 c-11 17 -12 34 -5 77 18 111 68 467 74
533 5 48 13 75 28 93 l22 25 661 -1 c397 0 671 3 686 9 14 5 28 18 32 27 4 10
18 104 32 209 13 104 40 298 59 430 38 261 41 305 23 323 -18 18 -1960 15
-2073 -3z"/>
<path d="M23560 11135 c-178 -36 -307 -121 -406 -270 -22 -33 -116 -208 -209
-390 -197 -388 -403 -783 -905 -1740 -653 -1245 -1112 -2126 -1108 -2130 1 -1
281 -4 620 -6 607 -4 618 -4 637 16 10 11 106 184 212 383 152 286 199 367
221 378 23 12 148 14 807 12 714 -3 782 -4 797 -20 11 -10 48 -149 104 -383
48 -202 93 -372 99 -378 18 -18 1225 -17 1243 1 10 10 2 54 -40 225 -44 182
-325 1353 -886 3698 -75 312 -139 574 -142 583 -4 9 -15 21 -25 26 -29 16
-939 11 -1019 -5z m335 -2114 l138 -694 -20 -17 c-20 -15 -60 -17 -475 -13
-249 2 -458 5 -464 6 -5 1 143 324 330 719 188 394 344 711 347 705 4 -7 69
-324 144 -706z"/>
<path d="M27020 11143 c-71 -7 -197 -35 -264 -59 -161 -56 -272 -156 -326
-294 -25 -63 -58 -291 -329 -2280 -110 -806 -212 -1546 -226 -1645 -32 -228
-32 -253 -2 -264 12 -5 590 -9 1283 -9 996 -1 1265 2 1279 11 13 10 25 76 60
332 24 176 53 391 66 477 18 129 20 160 9 173 -11 13 -92 15 -695 15 -593 0
-684 2 -695 15 -10 12 -4 72 29 307 22 161 76 559 121 883 44 325 134 978 199
1453 66 474 118 869 115 877 -5 13 -49 15 -298 13 -160 0 -307 -3 -326 -5z"/>
<path d="M1100 5828 c-191 -1939 -506 -5194 -504 -5197 8 -9 24557 49 24764
59 420 18 737 98 1095 275 278 137 494 292 710 509 400 402 657 903 745 1451
11 66 87 732 170 1480 82 748 152 1375 155 1393 l6 32 -13571 0 c-7463 0
-13570 -1 -13570 -2z m9899 -2075 c173 -500 316 -911 320 -915 3 -3 202 309
441 694 239 386 452 727 473 759 105 161 281 285 482 341 75 20 105 22 493 26
l412 4 0 -26 c0 -14 -85 -643 -190 -1398 -104 -754 -190 -1378 -190 -1385 0
-10 -95 -13 -485 -13 -382 0 -485 3 -485 13 1 6 38 278 83 604 46 325 80 590
76 587 -4 -2 -175 -274 -380 -604 l-373 -600 -494 2 -494 3 -208 603 c-114
332 -210 605 -212 607 -1 2 -72 -364 -157 -813 -85 -450 -159 -836 -164 -859
l-9 -43 -478 0 c-263 0 -481 3 -483 7 -8 16 472 2789 494 2858 44 132 171 288
292 359 62 36 166 74 230 85 29 5 196 9 373 10 l320 1 313 -907z m5362 900
l495 -6 -48 -341 c-26 -188 -47 -342 -48 -343 0 -2 -432 -3 -960 -3 -568 0
-960 -4 -960 -9 0 -7 -29 -217 -55 -393 l-5 -38 960 0 960 0 -5 -22 c-2 -13
-18 -126 -35 -253 -17 -126 -33 -240 -35 -252 l-5 -23 -958 0 -958 0 -30 -217
-29 -218 510 -6 c280 -3 711 -7 958 -8 246 0 447 -4 447 -7 0 -4 -20 -153 -45
-331 -25 -178 -45 -328 -45 -333 0 -7 -514 -10 -1446 -10 l-1446 0 6 33 c3 17
78 555 166 1195 111 805 167 1179 180 1215 73 193 247 338 439 366 70 11 1334
13 1992 4z m3140 -13 c635 -64 998 -345 1085 -840 17 -101 20 -356 4 -486 -17
-146 -59 -341 -101 -467 -179 -547 -540 -868 -1099 -979 l-115 -23 -1208 -3
-1208 -3 6 33 c3 18 77 555 165 1193 88 638 167 1187 175 1221 41 156 165 286
325 341 l65 22 901 1 c556 0 942 -4 1005 -10z m2534 -12 c-3 -13 -100 -711
-215 -1553 -116 -841 -213 -1540 -216 -1552 l-4 -23 -480 0 -480 0 0 23 c0 12
88 661 196 1442 163 1186 199 1428 219 1471 41 91 129 172 220 200 29 9 141
13 403 13 l362 1 -5 -22z m2545 18 c0 -1 227 -681 505 -1511 278 -829 505
-1511 505 -1516 0 -5 -199 -8 -482 -7 l-483 3 -74 258 -74 257 -742 0 -742 0
-93 -150 -93 -150 -484 0 c-385 0 -483 3 -477 12 4 7 365 589 803 1293 863
1389 844 1361 982 1438 126 71 166 76 582 76 202 1 367 -1 367 -3z m-20108
-480 c175 -38 324 -155 406 -321 43 -86 52 -131 62 -289 5 -78 18 -177 29
-221 62 -253 222 -479 442 -624 165 -109 325 -158 559 -171 85 -5 173 -14 195
-20 137 -40 281 -159 347 -286 49 -93 68 -169 68 -274 0 -167 -52 -292 -170
-410 -122 -122 -244 -173 -415 -173 -198 0 -378 99 -486 267 -64 98 -79 152
-94 341 -26 316 -106 504 -298 702 -153 157 -327 253 -539 297 -118 24 -332
30 -431 12 -422 -79 -739 -385 -837 -806 -6 -25 -15 -110 -20 -190 -10 -163
-26 -226 -77 -320 -97 -176 -307 -300 -508 -300 -266 0 -509 195 -571 456 -12
50 -15 96 -11 164 9 162 63 277 185 392 116 109 247 158 423 158 389 0 746
224 923 577 64 128 106 289 106 410 1 155 32 274 101 380 130 199 375 298 611
249z m2593 -401 c302 -79 460 -416 323 -695 -43 -88 -142 -187 -229 -228 -191
-91 -410 -53 -560 97 -83 83 -125 166 -141 277 -50 345 272 636 607 549z"/>
<path d="M18110 3886 c0 -20 -169 -1245 -175 -1274 l-6 -23 513 3 513 4 100
27 c158 42 255 95 350 191 139 140 203 300 212 531 8 201 -30 320 -132 414
-70 63 -145 98 -259 122 -82 17 -142 19 -603 19 -439 0 -513 -2 -513 -14z"/>
<path d="M23704 3272 l-241 -387 189 -3 c103 -1 273 -1 377 0 l188 3 -131 382
c-72 210 -133 384 -136 387 -3 2 -114 -169 -246 -382z"/>
</g>
</svg>
